Coordinates
version=1
nRows=16
nColumns=40
inDegrees=yes

Units are S.I. units (second, meters, Newtons, ...)
Angles are in degrees.

endheader
time	pelvis_tilt	pelvis_list	pelvis_rotation	pelvis_tx	pelvis_ty	pelvis_tz	hip_flexion_r	hip_adduction_r	hip_rotation_r	knee_angle_r	knee_angle_r_beta	ankle_angle_r	subtalar_angle_r	mtp_angle_r	hip_flexion_l	hip_adduction_l	hip_rotation_l	knee_angle_l	knee_angle_l_beta	ankle_angle_l	subtalar_angle_l	mtp_angle_l	lumbar_extension	lumbar_bending	lumbar_rotation	arm_flex_r	arm_add_r	arm_rot_r	elbow_flex_r	pro_sup_r	wrist_flex_r	wrist_dev_r	arm_flex_l	arm_add_l	arm_rot_l	elbow_flex_l	pro_sup_l	wrist_flex_l	wrist_dev_l
     13.88000000	     -6.46124074	     -4.24320306	     -9.01188481	      0.97500468	      0.92184625	      0.51180241	     22.34039742	      3.80650526	     -5.78671760	     21.49405752	     21.49405752	      7.04103333	      1.02328911	     -2.22533417	      3.45093126	    -11.38925538	    -11.55033625	     30.14393633	     30.14393633	     14.48947172	    -14.02470638	     -4.51720703	     -8.93558952	      7.05298873	      0.91094088	     -5.56160000	    -13.31510342	    -16.23536142	     33.29931360	     45.84099969	      0.00000000	      0.00000000	     36.59556626	    -18.35103815	    -11.94717611	     69.96838321	     48.03861531	      0.00000000	      0.00000000
     13.89971429	     -6.33220533	     -4.32242392	     -8.36036947	      0.97613713	      0.92288066	      0.51688268	     21.43422504	      4.01726983	     -6.29438620	     21.09900648	     21.09900648	      7.56708110	      1.11821049	     -2.29728994	      5.21002765	    -12.18933793	    -10.12122970	     34.07057740	     34.07057740	     12.93543946	    -15.24215875	     -4.75036818	     -9.02926111	      7.04974627	      0.87581291	     -4.57973456	    -13.82043770	    -16.28786920	     33.67115337	     45.84088912	      0.00000000	      0.00000000	     35.28409254	    -17.51394524	    -11.59107504	     69.14179162	     47.98745887	      0.00000000	      0.00000000
     13.91942857	     -6.18905845	     -4.39807372	     -7.69595964	      0.97690724	      0.92374053	      0.52168745	     20.58948744	      4.20737147	     -6.85556584	     20.78462147	     20.78462147	      8.04645757	      1.18502128	     -2.38992597	      7.17933145	    -12.85295335	     -8.47655880	     38.16249226	     38.16249226	     11.19531806	    -16.62393745	     -4.63419840	     -9.10355896	      7.01202937	      0.80616403	     -3.43201780	    -14.31718240	    -16.28584064	     34.06235768	     45.83746383	      0.00000000	      0.00000000	     33.91154070	    -16.64318391	    -11.22057890	     67.94277618	     47.92857747	      0.00000000	      0.00000000
     13.93914286	     -6.05039458	     -4.48327002	     -7.01233261	      0.97735365	      0.92436819	      0.52621152	     19.81307376	      4.41310600	     -7.40044693	     20.53493406	     20.53493406	      8.54659070	      1.16470107	     -2.51896607	      9.33282685	    -13.40882579	     -6.73616163	     42.30624770	     42.30624770	      9.55588660	    -17.77655217	     -3.98898039	     -9.21958328	      6.99043609	      0.73715150	     -2.12541175	    -14.81730646	    -16.22323216	     34.46248065	     45.83101009	      0.00000000	      0.00000000	     32.43879098	    -15.74816297	    -10.80483915	     66.39045132	     47.85987410	      0.00000000	      0.00000000
     13.95885714	     -5.80627733	     -4.60530942	     -6.33215785	      0.97763439	      0.92491384	      0.53047766	     19.00314891	      4.65524867	     -7.87454509	     20.41386438	     20.41386438	      9.03353129	      1.00247093	     -2.65876035	     11.41619904	    -13.89110028	     -5.06905888	     46.29608292	     46.29608292	      8.19786513	    -18.48398338	     -2.96303000	     -9.41874317	      6.98501740	      0.72211328	     -0.63509457	    -15.33312517	    -16.13456372	     34.91084221	     45.82177559	      0.00000000	      0.00000000	     30.87429824	    -14.76786784	    -10.32822600	     64.75207672	     47.78499953	      0.00000000	      0.00000000
     13.97857143	     -5.67615765	     -4.45270145	     -5.64818336	      0.97755715	      0.92519671	      0.53420581	     18.48598787	      4.61636311	     -8.13719474	     20.48619306	     20.48619306	      9.45635050	      0.51606424	     -2.96645371	     14.00455162	    -13.64612270	     -2.93425532	     50.68280768	     50.68280768	      9.95111985	    -18.53540498	      6.20027678	     -9.27208763	      6.73744260	      0.67861012	      1.07233655	    -15.88753261	    -15.03675472	     34.58809049	     45.79738326	      0.00000000	      0.00000000	     30.23369927	    -13.96724757	     -9.31088507	     59.41366144	     47.61188374	      0.00000000	      0.00000000
     13.99828571	     -5.43220910	     -4.49589385	     -4.99342319	      0.97748624	      0.92537160	      0.53788622	     17.81601517	      4.79863483	     -8.38656847	     20.54389049	     20.54389049	      9.96426461	      0.05990142	     -3.08777191	     16.20147945	    -13.70647380	     -1.36353368	     54.23578609	     54.23578609	     10.45564288	    -18.76542871	     11.17249430	     -9.41293362	      6.65200496	      0.86670562	      2.50034123	    -16.45510463	    -14.40262033	     35.14222828	     45.76569440	      0.00000000	      0.00000000	     28.64413914	    -12.96055478	     -8.36568975	     56.88783352	     47.47776775	      0.00000000	      0.00000000
     14.01800000	     -5.15130356	     -4.52166180	     -4.35374750	      0.97731332	      0.92538558	      0.54142757	     17.23852493	      4.97665242	     -8.52113734	     20.82200485	     20.82200485	     10.49105344	     -0.65436045	     -3.13397614	     18.14336619	    -13.79984329	     -0.21543501	     57.01830319	     57.01830319	     10.30061150	    -19.05186989	     13.27264674	     -9.55286718	      6.54430104	      0.57677441	      4.38486356	    -16.74911464	    -14.11817729	     35.88859752	     45.74188942	      0.00000000	      0.00000000	     26.64255652	    -12.40444734	     -7.69306656	     54.20229028	     47.36545311	      0.00000000	      0.00000000
     14.03771429	     -4.86869668	     -4.58118534	     -3.75486072	      0.97703439	      0.92530794	      0.54474531	     16.68808667	      5.18900539	     -8.64211786	     21.13915400	     21.13915400	     11.06957982	     -1.28840965	     -3.00258537	     20.05138484	    -13.87882697	      0.74434493	     59.37438100	     59.37438100	     11.14524996	    -19.21023178	     17.07316655	     -9.68574581	      6.46608862	      0.86891674	      6.05806603	    -17.22883031	    -13.47538756	     36.23500132	     45.72028646	      0.00000000	      0.00000000	     25.09066285	    -11.47829325	     -6.57915058	     50.65553138	     47.20650906	      0.00000000	      0.00000000
     14.05742857	     -4.54207333	     -4.61587412	     -3.16945252	      0.97668065	      0.92512943	      0.54790645	     16.17346004	      5.37070831	     -8.74006291	     21.58317654	     21.58317654	     11.63381402	     -2.02638196	     -2.90398898	     21.69127327	    -14.05374308	      1.25325324	     60.92713665	     60.92713665	     11.59726833	    -19.36060121	     18.53155972	     -9.86214721	      6.37226536	      0.68676644	      8.02722898	    -17.39260755	    -13.28782654	     37.17836274	     45.69474576	      0.00000000	      0.00000000	     22.89555337	    -10.95082602	     -5.81728762	     47.83696141	     47.08209897	      0.00000000	      0.00000000
     14.07714286	     -4.29081770	     -4.63961422	     -2.60318123	      0.97625655	      0.92479931	      0.55085186	     15.75637649	      5.53774314	     -8.84854324	     22.05208277	     22.05208277	     12.28992927	     -2.64412156	     -2.49445008	     23.32332843	    -14.22376216	      1.54522238	     61.90383273	     61.90383273	     12.61383191	    -19.44732561	     20.77397402	     -9.92591942	      6.25832050	      0.85060559	      9.79399443	    -17.61618218	    -12.91477350	     37.91799358	     45.67227607	      0.00000000	      0.00000000	     21.09353139	    -10.19550150	     -4.57181398	     44.07734373	     46.90292929	      0.00000000	      0.00000000
     14.09685714	     -4.02861099	     -4.65773964	     -2.06924262	      0.97572974	      0.92431854	      0.55362419	     15.38149392	      5.67257588	     -9.01565233	     22.59259675	     22.59259675	     12.85278761	     -3.20228846	     -2.48655373	     24.74420464	    -14.49847036	      1.47558120	     62.13530497	     62.13530497	     13.26704493	    -19.52083764	     21.21335932	    -10.03896009	      6.15306444	      0.63001693	     11.82974405	    -17.52438527	    -12.95641137	     39.15938669	     45.64323558	      0.00000000	      0.00000000	     18.48571944	     -9.75381195	     -4.00510845	     41.76785770	     46.79483631	      0.00000000	      0.00000000
     14.11657143	     -3.75416487	     -4.65774171	     -1.58561066	      0.97512367	      0.92386847	      0.55617597	     14.99459931	      5.78798814	     -9.14853133	     23.12657502	     23.12657502	     13.45286766	     -3.68896624	     -2.37059699	     25.96954082	    -14.76203340	      1.17220910	     61.72207063	     61.72207063	     14.10941600	    -19.55883976	     21.88432073	    -10.16209989	      6.05596543	      0.48423750	     13.91586094	    -17.38410326	    -12.96941286	     40.41029062	     45.61267371	      0.00000000	      0.00000000	     15.97575910	     -9.32397496	     -3.30723533	     39.11685521	     46.66885192	      0.00000000	      0.00000000
     14.13628571	     -3.51165489	     -4.63256970	     -1.11441943	      0.97440108	      0.92333132	      0.55844426	     14.63798541	      5.84601186	     -9.34760627	     23.64126342	     23.64126342	     14.06865884	     -4.00886775	     -2.16724726	     27.07398357	    -14.95745819	      0.77021603	     60.73275683	     60.73275683	     14.94617744	    -19.58245590	     22.47311104	    -10.25737291	      5.94172960	      0.48062392	     15.93481786	    -17.22295032	    -12.99971560	     41.70106600	     45.58145219	      0.00000000	      0.00000000	     13.51462299	     -8.85837500	     -2.50658904	     36.39310784	     46.52740237	      0.00000000	      0.00000000
     14.15600000	     -3.29348958	     -4.60601718	     -0.67382302	      0.97356559	      0.92274099	      0.56044797	     14.30959650	      5.87763809	     -9.59678727	     24.15407417	     24.15407417	     14.69987477	     -4.20018300	     -2.00694892	     28.01076465	    -15.10830957	      0.27491217	     59.18172368	     59.18172368	     15.56845223	    -19.58801806	     22.75667167	    -10.35306147	      5.85423000	      0.56726579	     17.94254057	    -17.04990663	    -13.09119160	     43.09727967	     45.54870756	      0.00000000	      0.00000000	     11.02475197	     -8.42342162	     -1.76346341	     33.97982292	     46.38910851	      0.00000000	      0.00000000
     14.17571429	     -3.10968287	     -4.57479235	     -0.25136214	      0.97259214	      0.92211789	      0.56213813	     13.99482128	      5.88152112	     -9.87043497	     24.61187238	     24.61187238	     15.31224570	     -4.27309578	     -1.88918651	     28.81413982	    -15.16314775	     -0.20552495	     57.15891034	     57.15891034	     15.92117101	    -19.57278198	     22.81059225	    -10.42861838	      5.79696669	      0.72999005	     19.95758571	    -16.86316725	    -13.22622628	     44.58806463	     45.51399708	      0.00000000	      0.00000000	      8.48363580	     -8.03105539	     -1.09470637	     31.87175008	     46.25536932	      0.00000000	      0.00000000
